<?xml version="1.0" encoding="UTF-8" standalone="no"?>
<!-- Created with Inkscape (http://www.inkscape.org/) -->

<svg
   version="1.1"
   id="svg918"
   width="804.12012"
   height="808.83508"
   viewBox="0 0 804.12012 808.83508"
   sodipodi:docname="Winamp-logo.svg"
   inkscape:version="1.1.2 (0a00cf5339, 2022-02-04)"
   xmlns:inkscape="http://www.inkscape.org/namespaces/inkscape"
   xmlns:sodipodi="http://sodipodi.sourceforge.net/DTD/sodipodi-0.dtd"
   xmlns="http://www.w3.org/2000/svg"
   xmlns:svg="http://www.w3.org/2000/svg">
  <defs
     id="defs922" />
  <sodipodi:namedview
     id="namedview920"
     pagecolor="#ffffff"
     bordercolor="#666666"
     borderopacity="1.0"
     inkscape:pageshadow="2"
     inkscape:pageopacity="0.0"
     inkscape:pagecheckerboard="0"
     showgrid="false"
     inkscape:object-paths="false"
     fit-margin-top="0"
     fit-margin-left="0"
     fit-margin-right="0"
     fit-margin-bottom="0"
     inkscape:zoom="0.64435105"
     inkscape:cx="104.75656"
     inkscape:cy="588.96466"
     inkscape:window-width="1680"
     inkscape:window-height="986"
     inkscape:window-x="0"
     inkscape:window-y="0"
     inkscape:window-maximized="1"
     inkscape:current-layer="svg918" />
  <path
     style="fill:#ffffff;stroke:#000000;stroke-width:1px;stroke-linecap:butt;stroke-linejoin:miter;stroke-opacity:1"
     d="M 271.20895,646.74423 401.91611,781.85345 777.43051,404.53006 614.16404,241.1738 l -69.5614,69.12995 49.87167,18.58254 -0.27296,108.28323 z"
     id="path1451" />
  <path
     style="fill:#ffffff;stroke:#000000;stroke-width:1px;stroke-linecap:butt;stroke-linejoin:miter;stroke-opacity:1"
     d="M 24.957133,400.77588 400.29963,26.196927 527.9961,155.49801 194.59109,349.89768 l -4.90884,95.61213 20.17799,19.86915 45.06558,0.0845 -81.86631,81.0764 z"
     id="path1415" />
  <g
     inkscape:groupmode="layer"
     inkscape:label="Image"
     id="g924"
     style="display:inline"
     transform="translate(1.9418322,0.70203825)">
    <path
       style="display:inline;fill:#fca600;fill-opacity:1;stroke:#000000;stroke-width:30.2362;stroke-linecap:butt;stroke-linejoin:miter;stroke-miterlimit:4;stroke-dasharray:none;stroke-opacity:1"
       d="m 194.59109,349.89768 c 1.99074,-3.34499 8.33992,-7.47086 8.33992,-7.47086 L 639.15748,86.984925 666.97082,71.325307 c 0,0 11.48425,4.232529 15.26666,8.705973 4.20698,4.975581 6.72565,18.353781 6.72565,18.353781 v 0 0 l -4.08984,69.886229 -142.21248,141.33042 49.87167,18.58254 1.83976,36.49953 -2.11272,71.7837 -481.78621,312.60861 -16.701639,3.98899 -10.002797,-11.88817 c 0.07914,-35.38504 0.107593,-70.7693 -0.05456,-106.15392 l 171.211506,-169.55953 -45.06558,-0.0845 c 0,0 -14.26397,1.04425 -17.97629,-2.87998 -3.64888,-3.85716 -2.2017,-16.98917 -2.2017,-16.98917 l 2.7444,-84.09063 c 0,0 -0.0685,-7.76953 2.16444,-11.5215 z"
       id="path2885"
       sodipodi:nodetypes="scccsccccccccccccccsccs" />
    <path
       style="display:inline;fill:none;stroke:#000000;stroke-width:37.7953;stroke-linecap:butt;stroke-linejoin:round;stroke-miterlimit:4;stroke-dasharray:none;stroke-opacity:1"
       d="M 24.957133,400.77588 173.05951,546.53986"
       id="path1421-3"
       sodipodi:nodetypes="cc" />
    <path
       style="display:inline;fill:none;stroke:#000000;stroke-width:38.0409;stroke-linecap:square;stroke-linejoin:round;stroke-miterlimit:4;stroke-dasharray:none;stroke-opacity:1"
       d="M 24.957133,400.77588 400.29963,26.196927"
       id="path1093"
       sodipodi:nodetypes="cc" />
    <path
       style="display:inline;fill:none;stroke:#000000;stroke-width:37.7953;stroke-linecap:butt;stroke-linejoin:round;stroke-miterlimit:4;stroke-dasharray:none;stroke-opacity:1"
       d="M 400.29963,26.196927 527.9961,155.49801"
       id="path1421"
       sodipodi:nodetypes="cc" />
    <path
       style="display:inline;fill:none;stroke:#000000;stroke-width:37.7953;stroke-linecap:butt;stroke-linejoin:miter;stroke-miterlimit:4;stroke-dasharray:none;stroke-opacity:1"
       d="M 612.22221,240.47176 775.48868,403.82802 399.97428,781.15141 269.26712,646.04219"
       id="path8984"
       sodipodi:nodetypes="cccc"
       sodipodi:insensitive="true" />
    <path
       style="opacity:0.681563;fill:#ffffff;stroke:none;stroke-width:1px;stroke-linecap:butt;stroke-linejoin:miter;stroke-opacity:1"
       d="m 111.61606,643.96792 302.85133,-293.61542 -154.90391,3.07964 -24.38864,3.63739 147.30785,1.79444 -263.26754,263.73434 z"
       id="path121242"
       sodipodi:nodetypes="ccccccc" />
    <path
       style="opacity:0.55611;fill:#ed5814;fill-opacity:1;stroke:none;stroke-width:1px;stroke-linecap:butt;stroke-linejoin:miter;stroke-opacity:1"
       d="m 223.34962,362.24066 c 23.42036,0.0907 106.08855,-2.25112 159.13307,-3.37669 l -15.76673,16.06959 -118.87217,-5.73989 z"
       id="path121755"
       sodipodi:nodetypes="ccccc" />
    <path
       style="opacity:0.674746;fill:#ffffff;stroke:none;stroke-width:1px;stroke-linecap:butt;stroke-linejoin:miter;stroke-opacity:1"
       d="m 448.75273,291.88463 34.09135,-46.31294 165.07259,-138.34432 -29.11942,32.74349 z"
       id="path148026"
       sodipodi:nodetypes="ccccc" />
    <path
       style="opacity:0.650701;fill:#ec4d00;fill-opacity:1;stroke:none;stroke-width:1px;stroke-linecap:butt;stroke-linejoin:miter;stroke-opacity:1"
       d="m 647.91667,107.22737 -21.07553,40.83504 -168.94873,143.25767 -9.13968,0.56455 170.04452,-151.91377 z"
       id="path150406" />
    <path
       style="fill:#ed5906;fill-opacity:1;stroke:none;stroke-width:1.00157;stroke-linecap:butt;stroke-linejoin:miter;stroke-miterlimit:4;stroke-dasharray:none;stroke-opacity:1"
       d="m 562.50272,343.06561 6.29873,6.32298 -446.03482,289.3867 -4.89112,-0.67194 81.24182,-60.07041 217.82628,-145.81333 z"
       id="path168204"
       sodipodi:nodetypes="ccccccc" />
  </g>
</svg>
